<svg width="18" height="18" viewBox="0 0 18 18" fill="none" xmlns="http://www.w3.org/2000/svg">
<g clip-path="url(#clip0_2681_14)">
<path d="M7.28086 11.9167C7.20647 11.6283 7.05615 11.3651 6.84555 11.1545C6.63494 10.9439 6.37176 10.7936 6.08336 10.7192L0.970865 9.40088C0.88364 9.37612 0.806872 9.32359 0.752208 9.25125C0.697545 9.17891 0.667969 9.09071 0.667969 9.00004C0.667969 8.90937 0.697545 8.82118 0.752208 8.74884C0.806872 8.6765 0.88364 8.62397 0.970865 8.59921L6.08336 7.28004C6.37166 7.20572 6.63477 7.05552 6.84537 6.84508C7.05596 6.63463 7.20634 6.37162 7.28086 6.08338L8.5992 0.970878C8.6237 0.88331 8.67618 0.806163 8.74863 0.751207C8.82108 0.696251 8.90951 0.666504 9.00045 0.666504C9.09138 0.666504 9.17982 0.696251 9.25226 0.751207C9.32471 0.806163 9.37719 0.88331 9.4017 0.970878L10.7192 6.08338C10.7936 6.37177 10.9439 6.63496 11.1545 6.84556C11.3651 7.05616 11.6283 7.20648 11.9167 7.28088L17.0292 8.59838C17.1171 8.62263 17.1946 8.67505 17.2499 8.74761C17.3052 8.82016 17.3351 8.90884 17.3351 9.00004C17.3351 9.09124 17.3052 9.17992 17.2499 9.25248C17.1946 9.32504 17.1171 9.37746 17.0292 9.40171L11.9167 10.7192C11.6283 10.7936 11.3651 10.9439 11.1545 11.1545C10.9439 11.3651 10.7936 11.6283 10.7192 11.9167L9.40086 17.0292C9.37636 17.1168 9.32388 17.1939 9.25143 17.2489C9.17898 17.3038 9.09055 17.3336 8.99961 17.3336C8.90868 17.3336 8.82025 17.3038 8.7478 17.2489C8.67535 17.1939 8.62287 17.1168 8.59836 17.0292L7.28086 11.9167Z" stroke="#6B7280" stroke-linecap="round" stroke-linejoin="round"/>
<path d="M15.6665 1.5V4.83333" stroke="#6B7280" stroke-linecap="round" stroke-linejoin="round"/>
<path d="M17.3333 3.16675H14" stroke="#6B7280" stroke-linecap="round" stroke-linejoin="round"/>
<path d="M2.3335 13.1667V14.8334" stroke="#6B7280" stroke-linecap="round" stroke-linejoin="round"/>
<path d="M3.16667 14H1.5" stroke="#6B7280" stroke-linecap="round" stroke-linejoin="round"/>
</g>
<defs>
<clipPath id="clip0_2681_14">
<rect width="18" height="18" fill="white"/>
</clipPath>
</defs>
</svg>
