<svg width="17" height="18" viewBox="0 0 17 18" fill="none" xmlns="http://www.w3.org/2000/svg">
<g clip-path="url(#clip0_2681_8)">
<path d="M11.333 12.3334L12.9997 14.0001L16.333 10.6667" stroke="#6005FF" stroke-width="0.833333" stroke-linecap="round" stroke-linejoin="round"/>
<path d="M15.5 7.3332V5.6665C15.4997 5.3742 15.4225 5.0872 15.2763 4.8341C15.13 4.5811 14.9198 4.371 14.6667 4.2248L8.8333 0.891503C8.58 0.745223 8.2926 0.668213 8 0.668213C7.7074 0.668213 7.42 0.745223 7.1667 0.891503L1.33333 4.2248C1.08022 4.371 0.86998 4.5811 0.72372 4.8341C0.57745 5.0872 0.5003 5.3742 0.5 5.6665V12.3332C0.5003 12.6254 0.57745 12.9125 0.72372 13.1655C0.86998 13.4186 1.08022 13.6287 1.33333 13.7748L7.1667 17.1082C7.42 17.2545 7.7074 17.3315 8 17.3315C8.2926 17.3315 8.58 17.2545 8.8333 17.1082L10.5 16.1582" stroke="#6005FF" stroke-width="0.833333" stroke-linecap="round" stroke-linejoin="round"/>
<path d="M11.7503 6.8334L4.29199 2.53345" stroke="#6005FF" stroke-width="0.833333" stroke-linecap="round" stroke-linejoin="round"/>
<path d="M0.741211 4.83325L7.9995 8.99985L15.2579 4.83325" stroke="#6005FF" stroke-width="0.833333" stroke-linecap="round" stroke-linejoin="round"/>
<path d="M8 17.3333V9" stroke="#6005FF" stroke-width="0.833333" stroke-linecap="round" stroke-linejoin="round"/>
</g>
<defs>
<clipPath id="clip0_2681_8">
<rect width="17" height="18" fill="white"/>
</clipPath>
</defs>
</svg>
