<svg width="16" height="18" viewBox="0 0 16 18" fill="none" xmlns="http://www.w3.org/2000/svg">
<g clip-path="url(#clip0_2681_80)">
<path d="M14.667 1.5H10.5003C10.0401 1.5 9.66699 1.8731 9.66699 2.33333V6.5C9.66699 6.9602 10.0401 7.3333 10.5003 7.3333H14.667C15.1272 7.3333 15.5003 6.9602 15.5003 6.5V2.33333C15.5003 1.8731 15.1272 1.5 14.667 1.5Z" stroke="#6B7280" stroke-width="1.25" stroke-linecap="round" stroke-linejoin="round"/>
<path d="M6.3333 16.5002V5.6668C6.3333 5.4458 6.2455 5.2339 6.0893 5.0776C5.933 4.9213 5.721 4.8335 5.5 4.8335H1.33333C1.11232 4.8335 0.90036 4.9213 0.74408 5.0776C0.5878 5.2339 0.5 5.4458 0.5 5.6668V15.6668C0.5 15.8878 0.5878 16.0998 0.74408 16.2561C0.90036 16.4124 1.11232 16.5002 1.33333 16.5002H11.3333C11.5543 16.5002 11.7663 16.4124 11.9226 16.2561C12.0789 16.0998 12.1667 15.8878 12.1667 15.6668V11.5002C12.1667 11.2791 12.0789 11.0672 11.9226 10.9109C11.7663 10.7546 11.5543 10.6668 11.3333 10.6668H0.5" stroke="#6B7280" stroke-width="1.25" stroke-linecap="round" stroke-linejoin="round"/>
</g>
<defs>
<clipPath id="clip0_2681_80">
<rect width="16" height="18" fill="white"/>
</clipPath>
</defs>
</svg>
